<?xml version="1.0" encoding="UTF-8" standalone="no"?>
<!DOCTYPE svg PUBLIC "-//W3C//DTD SVG 1.1//EN"
 "http://www.w3.org/Graphics/SVG/1.1/DTD/svg11.dtd">
<!-- Generated by graphviz version 2.40.1 (20161225.0304)
 -->
<!-- Title: datapath_fsm Pages: 1 -->
<svg width="503pt" height="228pt"
 viewBox="0.00 0.00 503.07 228.04" xmlns="http://www.w3.org/2000/svg" xmlns:xlink="http://www.w3.org/1999/xlink">
<g id="graph0" class="graph" transform="scale(1 1) rotate(0) translate(4 224.0412)">
<title>datapath_fsm</title>
<polygon fill="#ffffff" stroke="transparent" points="-4,4 -4,-224.0412 499.0677,-224.0412 499.0677,4 -4,4"/>
<!-- start -->
<g id="node1" class="node">
<title>start</title>
<ellipse fill="none" stroke="#000000" cx="77.9874" cy="-77.9874" rx="73.9755" ry="73.9755"/>
<ellipse fill="none" stroke="#000000" cx="77.9874" cy="-77.9874" rx="77.9748" ry="77.9748"/>
<text text-anchor="start" x="28.038" y="-107.3874" font-family="Times,serif" font-size="14.00" fill="#000000">INPUT_WAIT:</text>
<text text-anchor="start" x="28.038" y="-90.5874" font-family="Times,serif" font-size="14.00" fill="#000000">set_ordy = 0</text>
<text text-anchor="start" x="28.038" y="-73.7874" font-family="Times,serif" font-size="14.00" fill="#000000">clr_ordy = irdy</text>
<text text-anchor="start" x="28.038" y="-56.9874" font-family="Times,serif" font-size="14.00" fill="#000000">ldA = irdy</text>
<text text-anchor="start" x="28.038" y="-40.1874" font-family="Times,serif" font-size="14.00" fill="#000000">sel = 0</text>
</g>
<!-- start&#45;&gt;start -->
<g id="edge2" class="edge">
<title>start&#45;&gt;start</title>
<path fill="none" stroke="#000000" d="M59.7731,-154.0287C62.4961,-165.889 68.5675,-173.9748 77.9874,-173.9748 84.6108,-173.9748 89.5787,-169.9773 92.8912,-163.481"/>
<polygon fill="#000000" stroke="#000000" points="96.1995,-164.6235 96.2017,-154.0287 89.5929,-162.3096 96.1995,-164.6235"/>
<text text-anchor="middle" x="77.9874" y="-178.1748" font-family="Times,serif" font-size="14.00" fill="#000000">!irdy</text>
</g>
<!-- sum1 -->
<g id="node2" class="node">
<title>sum1</title>
<ellipse fill="none" stroke="#000000" cx="275.4115" cy="-154.9874" rx="60.7711" ry="65.1077"/>
<text text-anchor="start" x="240.359" y="-184.3874" font-family="Times,serif" font-size="14.00" fill="#000000">SUM1:</text>
<text text-anchor="start" x="240.359" y="-167.5874" font-family="Times,serif" font-size="14.00" fill="#000000">set_ordy = 0</text>
<text text-anchor="start" x="240.359" y="-150.7874" font-family="Times,serif" font-size="14.00" fill="#000000">clr_ordy = 0</text>
<text text-anchor="start" x="240.359" y="-133.9874" font-family="Times,serif" font-size="14.00" fill="#000000">ldA = 1</text>
<text text-anchor="start" x="240.359" y="-117.1874" font-family="Times,serif" font-size="14.00" fill="#000000">sel = 1</text>
</g>
<!-- start&#45;&gt;sum1 -->
<g id="edge1" class="edge">
<title>start&#45;&gt;sum1</title>
<path fill="none" stroke="#000000" d="M150.6598,-106.3313C169.5721,-113.7076 189.8578,-121.6195 208.4594,-128.8745"/>
<polygon fill="#000000" stroke="#000000" points="207.4289,-132.2293 218.0171,-132.6023 209.9724,-125.7078 207.4289,-132.2293"/>
<text text-anchor="middle" x="185.2504" y="-127.1874" font-family="Times,serif" font-size="14.00" fill="#000000">irdy</text>
</g>
<!-- sum2 -->
<g id="node3" class="node">
<title>sum2</title>
<ellipse fill="none" stroke="#000000" cx="434.1823" cy="-73.9874" rx="60.7711" ry="65.1077"/>
<text text-anchor="start" x="399.1298" y="-103.3874" font-family="Times,serif" font-size="14.00" fill="#000000">SUM2:</text>
<text text-anchor="start" x="399.1298" y="-86.5874" font-family="Times,serif" font-size="14.00" fill="#000000">set_ordy = 1</text>
<text text-anchor="start" x="399.1298" y="-69.7874" font-family="Times,serif" font-size="14.00" fill="#000000">clr_ordy = 0</text>
<text text-anchor="start" x="399.1298" y="-52.9874" font-family="Times,serif" font-size="14.00" fill="#000000">ldA = 1</text>
<text text-anchor="start" x="399.1298" y="-36.1874" font-family="Times,serif" font-size="14.00" fill="#000000">sel = 1</text>
</g>
<!-- sum1&#45;&gt;sum2 -->
<g id="edge3" class="edge">
<title>sum1&#45;&gt;sum2</title>
<path fill="none" stroke="#000000" d="M330.4962,-126.8849C343.3039,-120.3508 357.0455,-113.3402 370.2002,-106.6291"/>
<polygon fill="#000000" stroke="#000000" points="371.8777,-109.7025 379.1949,-102.0403 368.6966,-103.4671 371.8777,-109.7025"/>
</g>
<!-- sum2&#45;&gt;start -->
<g id="edge4" class="edge">
<title>sum2&#45;&gt;start</title>
<path fill="none" stroke="#000000" d="M373.2965,-74.6711C316.3781,-75.3103 230.7297,-76.2721 166.3057,-76.9956"/>
<polygon fill="#000000" stroke="#000000" points="166.1159,-73.4974 156.1559,-77.1096 166.1946,-80.497 166.1159,-73.4974"/>
</g>
</g>
</svg>